# MagicaVoxel @ ephtracy

# material
mtllib house_heya.mtl
usemtl palette

# normals
vn -1 0 0
vn 1 0 0
vn 0 0 1
vn 0 0 -1
vn 0 -1 0
vn 0 1 0

# texcoords
vt 0.0332031 0.5
vt 0.587891 0.5

# verts
v -49 0 49
v -49 0 -48
v -49 8 43
v -49 8 31
v -49 8 30
v -49 8 17
v -49 9 -5
v -49 9 -21
v -49 9 -23
v -49 9 -40
v -49 22 43
v -49 22 31
v -49 22 30
v -49 22 17
v -49 22 -5
v -49 22 -21
v -49 22 -23
v -49 22 -40
v -49 28 49
v -49 28 -48
v -10 1 12
v -10 1 8
v -10 1 -5
v -10 1 -47
v -10 24 8
v -10 24 -5
v -10 28 12
v -10 28 -47
v 6 1 -32
v 6 1 -33
v 6 22 -32
v 6 22 -33
v 8 1 13
v 8 1 7
v 8 1 -3
v 8 1 -32
v 8 1 -33
v 8 1 -47
v 8 24 7
v 8 24 -3
v 8 28 13
v 8 28 -32
v 8 28 -33
v 8 28 -47
v 42 0 49
v 42 0 48
v 42 1 48
v 42 21 49
v 42 21 48
v 47 1 14
v 47 1 13
v 47 2 14
v 47 2 13
v 48 1 48
v 48 1 14
v 48 1 12
v 48 1 -47
v 48 2 14
v 48 2 13
v 48 10 1
v 48 10 -13
v 48 10 -14
v 48 10 -27
v 48 22 1
v 48 22 -13
v 48 22 -14
v 48 22 -27
v 48 28 48
v 48 28 13
v 48 28 12
v 48 28 -47
v -48 1 48
v -48 1 13
v -48 1 12
v -48 1 -47
v -48 8 43
v -48 8 31
v -48 8 30
v -48 8 17
v -48 9 -5
v -48 9 -21
v -48 9 -23
v -48 9 -40
v -48 22 43
v -48 22 31
v -48 22 30
v -48 22 17
v -48 22 -5
v -48 22 -21
v -48 22 -23
v -48 22 -40
v -48 28 48
v -48 28 13
v -48 28 12
v -48 28 -47
v -9 1 13
v -9 1 8
v -9 1 -5
v -9 1 -32
v -9 1 -33
v -9 1 -47
v -9 24 8
v -9 24 -5
v -9 28 13
v -9 28 -32
v -9 28 -33
v -9 28 -47
v -6 1 -32
v -6 1 -33
v -6 22 -32
v -6 22 -33
v 9 1 12
v 9 1 7
v 9 1 -3
v 9 1 -47
v 9 24 7
v 9 24 -3
v 9 28 12
v 9 28 -47
v 28 0 49
v 28 0 48
v 28 1 48
v 28 21 49
v 28 21 48
v 49 0 49
v 49 0 -48
v 49 10 1
v 49 10 -13
v 49 10 -14
v 49 10 -27
v 49 22 1
v 49 22 -13
v 49 22 -14
v 49 22 -27
v 49 28 49
v 49 28 -48
v -49 0 49
v -49 28 49
v -39 9 49
v -39 21 49
v -22 9 49
v -22 21 49
v -20 9 49
v -20 21 49
v -5 9 49
v -5 21 49
v 28 0 49
v 28 21 49
v 42 0 49
v 42 21 49
v 49 0 49
v 49 28 49
v 28 0 48
v 28 1 48
v 42 0 48
v 42 1 48
v 47 1 14
v 47 2 14
v 48 1 14
v 48 2 14
v -48 1 13
v -48 28 13
v -9 1 13
v -9 28 13
v 8 1 13
v 8 28 13
v 47 1 13
v 47 2 13
v 48 2 13
v 48 28 13
v 8 1 -3
v 8 24 -3
v 9 1 -3
v 9 24 -3
v -10 1 -5
v -10 24 -5
v -9 1 -5
v -9 24 -5
v -9 1 -32
v -9 28 -32
v -6 1 -32
v -6 22 -32
v 6 1 -32
v 6 22 -32
v 8 1 -32
v 8 28 -32
v -48 1 -47
v -48 28 -47
v -10 1 -47
v -10 28 -47
v -9 1 -47
v -9 28 -47
v -5 11 -47
v -5 22 -47
v 6 11 -47
v 6 22 -47
v 8 1 -47
v 8 28 -47
v 9 1 -47
v 9 28 -47
v 48 1 -47
v 48 28 -47
v -48 1 48
v -48 28 48
v -39 9 48
v -39 21 48
v -22 9 48
v -22 21 48
v -20 9 48
v -20 21 48
v -5 9 48
v -5 21 48
v 28 1 48
v 28 21 48
v 42 1 48
v 42 21 48
v 48 1 48
v 48 28 48
v -48 1 12
v -48 28 12
v -10 1 12
v -10 28 12
v 9 1 12
v 9 28 12
v 48 1 12
v 48 28 12
v -10 1 8
v -10 24 8
v -9 1 8
v -9 24 8
v 8 1 7
v 8 24 7
v 9 1 7
v 9 24 7
v -9 1 -33
v -9 28 -33
v -6 1 -33
v -6 22 -33
v 6 1 -33
v 6 22 -33
v 8 1 -33
v 8 28 -33
v -49 0 -48
v -49 28 -48
v -5 11 -48
v -5 22 -48
v 6 11 -48
v 6 22 -48
v 49 0 -48
v 49 28 -48
v -49 0 49
v 28 0 49
v 42 0 49
v 49 0 49
v 28 0 48
v 42 0 48
v -49 0 -48
v 49 0 -48
v 28 21 49
v 42 21 49
v 28 21 48
v 42 21 48
v -6 22 -32
v 6 22 -32
v -6 22 -33
v 6 22 -33
v -10 24 8
v -9 24 8
v 8 24 7
v 9 24 7
v 8 24 -3
v 9 24 -3
v -10 24 -5
v -9 24 -5
v -48 1 48
v 28 1 48
v 42 1 48
v 48 1 48
v 47 1 14
v 48 1 14
v -48 1 13
v -9 1 13
v 8 1 13
v 47 1 13
v -48 1 12
v -10 1 12
v 9 1 12
v 48 1 12
v -10 1 8
v -9 1 8
v 8 1 7
v 9 1 7
v 8 1 -3
v 9 1 -3
v -10 1 -5
v -9 1 -5
v -9 1 -32
v -6 1 -32
v 6 1 -32
v 8 1 -32
v -9 1 -33
v -6 1 -33
v 6 1 -33
v 8 1 -33
v -48 1 -47
v -10 1 -47
v -9 1 -47
v 8 1 -47
v 9 1 -47
v 48 1 -47
v 47 2 14
v 48 2 14
v 47 2 13
v 48 2 13
v -49 28 49
v 49 28 49
v -48 28 48
v 48 28 48
v -48 28 13
v -9 28 13
v 8 28 13
v 48 28 13
v -48 28 12
v -10 28 12
v 9 28 12
v 48 28 12
v -9 28 -32
v 8 28 -32
v -9 28 -33
v 8 28 -33
v -48 28 -47
v -10 28 -47
v -9 28 -47
v 8 28 -47
v 9 28 -47
v 48 28 -47
v -49 28 -48
v 49 28 -48

# faces
f 3/1/1 2/1/1 1/1/1
f 4/1/1 2/1/1 3/1/1
f 5/1/1 2/1/1 4/1/1
f 6/1/1 2/1/1 5/1/1
f 7/1/1 2/1/1 6/1/1
f 8/1/1 2/1/1 7/1/1
f 9/1/1 2/1/1 8/1/1
f 10/1/1 2/1/1 9/1/1
f 11/1/1 3/1/1 1/1/1
f 11/2/1 4/2/1 3/2/1
f 12/1/1 5/1/1 4/1/1
f 12/2/1 4/2/1 11/2/1
f 13/2/1 6/2/1 5/2/1
f 13/1/1 5/1/1 12/1/1
f 14/1/1 7/1/1 6/1/1
f 14/2/1 6/2/1 13/2/1
f 15/2/1 8/2/1 7/2/1
f 15/1/1 7/1/1 14/1/1
f 16/1/1 9/1/1 8/1/1
f 16/2/1 8/2/1 15/2/1
f 17/2/1 10/2/1 9/2/1
f 17/1/1 9/1/1 16/1/1
f 18/1/1 2/1/1 10/1/1
f 18/2/1 10/2/1 17/2/1
f 19/1/1 17/1/1 16/1/1
f 19/1/1 16/1/1 15/1/1
f 19/1/1 18/1/1 17/1/1
f 19/1/1 15/1/1 14/1/1
f 19/1/1 14/1/1 13/1/1
f 19/1/1 13/1/1 12/1/1
f 19/1/1 12/1/1 11/1/1
f 19/1/1 11/1/1 1/1/1
f 20/1/1 2/1/1 18/1/1
f 20/1/1 18/1/1 19/1/1
f 25/1/1 22/1/1 21/1/1
f 26/1/1 24/1/1 23/1/1
f 27/1/1 25/1/1 21/1/1
f 27/1/1 26/1/1 25/1/1
f 28/1/1 24/1/1 26/1/1
f 28/1/1 26/1/1 27/1/1
f 31/1/1 30/1/1 29/1/1
f 32/1/1 30/1/1 31/1/1
f 39/1/1 34/1/1 33/1/1
f 40/1/1 36/1/1 35/1/1
f 41/1/1 39/1/1 33/1/1
f 41/1/1 40/1/1 39/1/1
f 42/1/1 36/1/1 40/1/1
f 42/1/1 40/1/1 41/1/1
f 43/1/1 38/1/1 37/1/1
f 44/1/1 38/1/1 43/1/1
f 47/1/1 46/1/1 45/1/1
f 48/1/1 47/1/1 45/1/1
f 49/1/1 47/1/1 48/1/1
f 52/1/1 51/1/1 50/1/1
f 53/1/1 51/1/1 52/1/1
f 58/1/1 55/1/1 54/1/1
f 60/1/1 57/1/1 56/1/1
f 61/1/1 57/1/1 60/1/1
f 62/1/1 57/1/1 61/1/1
f 63/1/1 57/1/1 62/1/1
f 64/1/1 60/1/1 56/1/1
f 64/2/1 61/2/1 60/2/1
f 65/1/1 62/1/1 61/1/1
f 65/2/1 61/2/1 64/2/1
f 66/2/1 63/2/1 62/2/1
f 66/1/1 62/1/1 65/1/1
f 67/1/1 57/1/1 63/1/1
f 67/2/1 63/2/1 66/2/1
f 68/1/1 59/1/1 58/1/1
f 68/1/1 58/1/1 54/1/1
f 69/1/1 59/1/1 68/1/1
f 70/1/1 67/1/1 66/1/1
f 70/1/1 66/1/1 65/1/1
f 70/1/1 65/1/1 64/1/1
f 70/1/1 64/1/1 56/1/1
f 71/1/1 57/1/1 67/1/1
f 71/1/1 67/1/1 70/1/1
f 72/1/2 73/1/2 76/1/2
f 76/1/2 73/1/2 77/1/2
f 77/1/2 73/1/2 78/1/2
f 78/1/2 73/1/2 79/1/2
f 74/1/2 75/1/2 80/1/2
f 80/1/2 75/1/2 81/1/2
f 81/1/2 75/1/2 82/1/2
f 82/1/2 75/1/2 83/1/2
f 72/1/2 76/1/2 84/1/2
f 76/2/2 77/2/2 84/2/2
f 77/1/2 78/1/2 85/1/2
f 84/2/2 77/2/2 85/2/2
f 78/2/2 79/2/2 86/2/2
f 85/1/2 78/1/2 86/1/2
f 79/1/2 73/1/2 87/1/2
f 86/2/2 79/2/2 87/2/2
f 74/1/2 80/1/2 88/1/2
f 80/2/2 81/2/2 88/2/2
f 81/1/2 82/1/2 89/1/2
f 88/2/2 81/2/2 89/2/2
f 82/2/2 83/2/2 90/2/2
f 89/1/2 82/1/2 90/1/2
f 83/1/2 75/1/2 91/1/2
f 90/2/2 83/2/2 91/2/2
f 85/1/2 86/1/2 92/1/2
f 72/1/2 84/1/2 92/1/2
f 84/1/2 85/1/2 92/1/2
f 86/1/2 87/1/2 92/1/2
f 87/1/2 73/1/2 93/1/2
f 92/1/2 87/1/2 93/1/2
f 89/1/2 90/1/2 94/1/2
f 88/1/2 89/1/2 94/1/2
f 90/1/2 91/1/2 94/1/2
f 74/1/2 88/1/2 94/1/2
f 91/1/2 75/1/2 95/1/2
f 94/1/2 91/1/2 95/1/2
f 96/1/2 97/1/2 102/1/2
f 98/1/2 99/1/2 103/1/2
f 96/1/2 102/1/2 104/1/2
f 102/1/2 103/1/2 104/1/2
f 103/1/2 99/1/2 105/1/2
f 104/1/2 103/1/2 105/1/2
f 100/1/2 101/1/2 106/1/2
f 106/1/2 101/1/2 107/1/2
f 108/1/2 109/1/2 110/1/2
f 110/1/2 109/1/2 111/1/2
f 112/1/2 113/1/2 116/1/2
f 114/1/2 115/1/2 117/1/2
f 112/1/2 116/1/2 118/1/2
f 116/1/2 117/1/2 118/1/2
f 117/1/2 115/1/2 119/1/2
f 118/1/2 117/1/2 119/1/2
f 120/1/2 121/1/2 122/1/2
f 120/1/2 122/1/2 123/1/2
f 123/1/2 122/1/2 124/1/2
f 125/1/2 126/1/2 127/1/2
f 127/1/2 126/1/2 128/1/2
f 128/1/2 126/1/2 129/1/2
f 129/1/2 126/1/2 130/1/2
f 125/1/2 127/1/2 131/1/2
f 127/2/2 128/2/2 131/2/2
f 128/1/2 129/1/2 132/1/2
f 131/2/2 128/2/2 132/2/2
f 129/2/2 130/2/2 133/2/2
f 132/1/2 129/1/2 133/1/2
f 130/1/2 126/1/2 134/1/2
f 133/2/2 130/2/2 134/2/2
f 132/1/2 133/1/2 135/1/2
f 131/1/2 132/1/2 135/1/2
f 133/1/2 134/1/2 135/1/2
f 125/1/2 131/1/2 135/1/2
f 134/1/2 126/1/2 136/1/2
f 135/1/2 134/1/2 136/1/2
f 139/1/3 138/1/3 137/1/3
f 140/1/3 138/1/3 139/1/3
f 141/1/3 139/1/3 137/1/3
f 141/2/3 140/2/3 139/2/3
f 142/1/3 138/1/3 140/1/3
f 142/2/3 140/2/3 141/2/3
f 143/1/3 141/1/3 137/1/3
f 143/1/3 142/1/3 141/1/3
f 144/1/3 138/1/3 142/1/3
f 144/1/3 142/1/3 143/1/3
f 145/1/3 143/1/3 137/1/3
f 145/2/3 144/2/3 143/2/3
f 146/1/3 138/1/3 144/1/3
f 146/2/3 144/2/3 145/2/3
f 147/1/3 145/1/3 137/1/3
f 147/1/3 146/1/3 145/1/3
f 148/1/3 138/1/3 146/1/3
f 148/1/3 146/1/3 147/1/3
f 150/1/3 138/1/3 148/1/3
f 151/1/3 150/1/3 149/1/3
f 152/1/3 138/1/3 150/1/3
f 152/1/3 150/1/3 151/1/3
f 155/1/3 154/1/3 153/1/3
f 156/1/3 154/1/3 155/1/3
f 159/1/3 158/1/3 157/1/3
f 160/1/3 158/1/3 159/1/3
f 163/1/3 162/1/3 161/1/3
f 164/1/3 162/1/3 163/1/3
f 167/1/3 166/1/3 165/1/3
f 168/1/3 166/1/3 167/1/3
f 169/1/3 166/1/3 168/1/3
f 170/1/3 166/1/3 169/1/3
f 173/1/3 172/1/3 171/1/3
f 174/1/3 172/1/3 173/1/3
f 177/1/3 176/1/3 175/1/3
f 178/1/3 176/1/3 177/1/3
f 181/1/3 180/1/3 179/1/3
f 182/1/3 180/1/3 181/1/3
f 184/1/3 180/1/3 182/1/3
f 185/1/3 184/1/3 183/1/3
f 186/1/3 180/1/3 184/1/3
f 186/1/3 184/1/3 185/1/3
f 189/1/3 188/1/3 187/1/3
f 190/1/3 188/1/3 189/1/3
f 193/1/3 192/1/3 191/1/3
f 194/1/3 192/1/3 193/1/3
f 195/1/3 193/1/3 191/1/3
f 195/2/3 194/2/3 193/2/3
f 196/1/3 192/1/3 194/1/3
f 196/2/3 194/2/3 195/2/3
f 197/1/3 195/1/3 191/1/3
f 197/1/3 196/1/3 195/1/3
f 198/1/3 192/1/3 196/1/3
f 198/1/3 196/1/3 197/1/3
f 201/1/3 200/1/3 199/1/3
f 202/1/3 200/1/3 201/1/3
f 203/1/4 204/1/4 205/1/4
f 205/1/4 204/1/4 206/1/4
f 203/1/4 205/1/4 207/1/4
f 205/2/4 206/2/4 207/2/4
f 206/1/4 204/1/4 208/1/4
f 207/2/4 206/2/4 208/2/4
f 203/1/4 207/1/4 209/1/4
f 207/1/4 208/1/4 209/1/4
f 208/1/4 204/1/4 210/1/4
f 209/1/4 208/1/4 210/1/4
f 203/1/4 209/1/4 211/1/4
f 209/2/4 210/2/4 211/2/4
f 210/1/4 204/1/4 212/1/4
f 211/2/4 210/2/4 212/2/4
f 203/1/4 211/1/4 213/1/4
f 211/1/4 212/1/4 213/1/4
f 212/1/4 204/1/4 214/1/4
f 213/1/4 212/1/4 214/1/4
f 214/1/4 204/1/4 216/1/4
f 215/1/4 216/1/4 217/1/4
f 216/1/4 204/1/4 218/1/4
f 217/1/4 216/1/4 218/1/4
f 219/1/4 220/1/4 221/1/4
f 221/1/4 220/1/4 222/1/4
f 223/1/4 224/1/4 225/1/4
f 225/1/4 224/1/4 226/1/4
f 227/1/4 228/1/4 229/1/4
f 229/1/4 228/1/4 230/1/4
f 231/1/4 232/1/4 233/1/4
f 233/1/4 232/1/4 234/1/4
f 235/1/4 236/1/4 237/1/4
f 237/1/4 236/1/4 238/1/4
f 238/1/4 236/1/4 240/1/4
f 239/1/4 240/1/4 241/1/4
f 240/1/4 236/1/4 242/1/4
f 241/1/4 240/1/4 242/1/4
f 243/1/4 244/1/4 245/1/4
f 245/1/4 244/1/4 246/1/4
f 243/1/4 245/1/4 247/1/4
f 245/2/4 246/2/4 247/2/4
f 246/1/4 244/1/4 248/1/4
f 247/2/4 246/2/4 248/2/4
f 243/1/4 247/1/4 249/1/4
f 247/1/4 248/1/4 249/1/4
f 248/1/4 244/1/4 250/1/4
f 249/1/4 248/1/4 250/1/4
f 255/1/5 252/1/5 251/1/5
f 256/1/5 254/1/5 253/1/5
f 257/1/5 255/1/5 251/1/5
f 257/1/5 256/1/5 255/1/5
f 258/1/5 254/1/5 256/1/5
f 258/1/5 256/1/5 257/1/5
f 261/1/5 260/1/5 259/1/5
f 262/1/5 260/1/5 261/1/5
f 265/1/5 264/1/5 263/1/5
f 266/1/5 264/1/5 265/1/5
f 271/1/5 270/1/5 269/1/5
f 272/1/5 270/1/5 271/1/5
f 273/1/5 268/1/5 267/1/5
f 274/1/5 268/1/5 273/1/5
f 275/1/6 276/1/6 279/1/6
f 277/1/6 278/1/6 279/1/6
f 276/1/6 277/1/6 279/1/6
f 279/1/6 278/1/6 280/1/6
f 275/1/6 279/1/6 281/1/6
f 281/1/6 279/1/6 282/1/6
f 282/1/6 279/1/6 283/1/6
f 283/1/6 279/1/6 284/1/6
f 285/1/6 286/1/6 289/1/6
f 282/1/6 283/1/6 290/1/6
f 290/1/6 283/1/6 291/1/6
f 289/1/6 290/1/6 291/1/6
f 287/1/6 288/1/6 292/1/6
f 289/1/6 291/1/6 293/1/6
f 291/1/6 292/1/6 293/1/6
f 292/1/6 288/1/6 294/1/6
f 293/1/6 292/1/6 294/1/6
f 289/1/6 293/1/6 295/1/6
f 285/1/6 289/1/6 295/1/6
f 295/1/6 293/1/6 296/1/6
f 296/1/6 293/1/6 297/1/6
f 297/1/6 293/1/6 298/1/6
f 298/1/6 293/1/6 299/1/6
f 299/1/6 293/1/6 300/1/6
f 298/1/6 299/1/6 302/1/6
f 302/1/6 299/1/6 303/1/6
f 285/1/6 295/1/6 305/1/6
f 305/1/6 295/1/6 306/1/6
f 303/1/6 304/1/6 307/1/6
f 301/1/6 302/1/6 307/1/6
f 302/1/6 303/1/6 307/1/6
f 307/1/6 304/1/6 308/1/6
f 294/1/6 288/1/6 309/1/6
f 309/1/6 288/1/6 310/1/6
f 311/1/6 312/1/6 313/1/6
f 313/1/6 312/1/6 314/1/6
f 315/1/6 316/1/6 317/1/6
f 317/1/6 316/1/6 318/1/6
f 315/1/6 317/1/6 319/1/6
f 318/1/6 316/1/6 322/1/6
f 319/1/6 320/1/6 323/1/6
f 315/1/6 319/1/6 323/1/6
f 323/1/6 320/1/6 324/1/6
f 321/1/6 322/1/6 325/1/6
f 322/1/6 316/1/6 326/1/6
f 325/1/6 322/1/6 326/1/6
f 324/1/6 320/1/6 327/1/6
f 321/1/6 325/1/6 328/1/6
f 324/1/6 327/1/6 329/1/6
f 327/1/6 328/1/6 329/1/6
f 328/1/6 325/1/6 330/1/6
f 329/1/6 328/1/6 330/1/6
f 315/1/6 323/1/6 331/1/6
f 324/1/6 329/1/6 332/1/6
f 332/1/6 329/1/6 333/1/6
f 330/1/6 325/1/6 334/1/6
f 334/1/6 325/1/6 335/1/6
f 326/1/6 316/1/6 336/1/6
f 334/1/6 335/1/6 337/1/6
f 335/1/6 336/1/6 337/1/6
f 315/1/6 331/1/6 337/1/6
f 332/1/6 333/1/6 337/1/6
f 333/1/6 334/1/6 337/1/6
f 331/1/6 332/1/6 337/1/6
f 336/1/6 316/1/6 338/1/6
f 337/1/6 336/1/6 338/1/6
