# MagicaVoxel @ ephtracy

# material
mtllib house_heya_desk2.mtl
usemtl palette

# normals
vn -1 0 0
vn 1 0 0
vn 0 0 1
vn 0 0 -1
vn 0 -1 0
vn 0 1 0

# texcoords
vt 0.0175781 0.5
vt 0.228516 0.5
vt 0.369141 0.5
vt 0.826172 0.5
vt 0.861328 0.5
vt 0.958984 0.5
vt 0.994141 0.5

# verts
v -7.5 0 4
v -7.5 0 3
v -7.5 0 -3
v -7.5 0 -4
v -7.5 1 3
v -7.5 1 -3
v -7.5 6 4
v -7.5 6 -4
v -7.5 9 -1
v -7.5 9 -2
v -7.5 10 -1
v -7.5 10 -2
v -6.5 6 -1
v -6.5 6 -3
v -6.5 7 -1
v -6.5 7 -3
v -5.5 7 -2
v -5.5 7 -3
v -5.5 9 -2
v -5.5 10 -2
v -5.5 10 -3
v 1.5 0 4
v 1.5 0 -4
v 1.5 5 4
v 1.5 5 -4
v 1.5 6 -0
v 1.5 6 -4
v 1.5 10 -0
v 1.5 10 -4
v 6.5 6 -0
v 6.5 6 -4
v 6.5 10 -0
v 6.5 10 -4
v -6.5 0 4
v -6.5 0 3
v -6.5 0 -3
v -6.5 0 -4
v -6.5 1 3
v -6.5 1 -3
v -6.5 5 4
v -6.5 5 -4
v -4.5 7 -2
v -4.5 7 -3
v -4.5 9 -2
v -4.5 10 -2
v -4.5 10 -3
v -3.5 6 -1
v -3.5 6 -3
v -3.5 7 -1
v -3.5 7 -3
v -2.5 9 -1
v -2.5 9 -2
v -2.5 10 -1
v -2.5 10 -2
v 2.5 6 -0
v 2.5 6 -1
v 2.5 10 -0
v 2.5 10 -1
v 5.5 6 -1
v 5.5 6 -4
v 5.5 10 -1
v 5.5 10 -4
v 7.5 0 4
v 7.5 0 -4
v 7.5 6 4
v 7.5 6 -0
v 7.5 10 -0
v 7.5 10 -4
v -7.5 0 4
v -7.5 6 4
v -6.5 0 4
v -6.5 5 4
v 1.5 0 4
v 1.5 5 4
v 2.5 0 4
v 2.5 2 4
v 2.5 3 4
v 2.5 5 4
v 6.5 0 4
v 6.5 2 4
v 6.5 3 4
v 6.5 5 4
v 7.5 0 4
v 7.5 6 4
v 1.5 6 -0
v 1.5 10 -0
v 2.5 6 -0
v 2.5 10 -0
v 6.5 6 -0
v 6.5 10 -0
v 7.5 6 -0
v 7.5 10 -0
v -7.5 9 -1
v -7.5 10 -1
v -6.5 6 -1
v -6.5 7 -1
v -3.5 6 -1
v -3.5 7 -1
v -2.5 9 -1
v -2.5 10 -1
v 2.5 6 -1
v 2.5 10 -1
v 3.5 6 -1
v 3.5 10 -1
v 4.5 6 -1
v 4.5 10 -1
v 5.5 6 -1
v 5.5 10 -1
v -5.5 7 -2
v -5.5 9 -2
v -4.5 7 -2
v -4.5 9 -2
v -7.5 0 -3
v -7.5 1 -3
v -6.5 0 -3
v -6.5 1 -3
v -7.5 0 3
v -7.5 1 3
v -6.5 0 3
v -6.5 1 3
v -7.5 9 -2
v -7.5 10 -2
v -5.5 9 -2
v -5.5 10 -2
v -4.5 9 -2
v -4.5 10 -2
v -2.5 9 -2
v -2.5 10 -2
v -6.5 6 -3
v -6.5 7 -3
v -5.5 7 -3
v -5.5 10 -3
v -4.5 7 -3
v -4.5 10 -3
v -3.5 6 -3
v -3.5 7 -3
v -7.5 0 -4
v -7.5 6 -4
v -6.5 0 -4
v -6.5 5 -4
v 1.5 0 -4
v 1.5 5 -4
v 1.5 6 -4
v 1.5 10 -4
v 2.5 6 -4
v 2.5 10 -4
v 3.5 6 -4
v 3.5 10 -4
v 4.5 6 -4
v 4.5 10 -4
v 5.5 6 -4
v 5.5 10 -4
v 6.5 6 -4
v 6.5 10 -4
v 7.5 0 -4
v 7.5 10 -4
v -7.5 0 4
v -6.5 0 4
v 1.5 0 4
v 2.5 0 4
v 6.5 0 4
v 7.5 0 4
v -7.5 0 3
v -6.5 0 3
v 2.5 0 3
v 6.5 0 3
v -7.5 0 -3
v -6.5 0 -3
v -7.5 0 -4
v -6.5 0 -4
v 1.5 0 -4
v 7.5 0 -4
v -7.5 1 3
v -6.5 1 3
v -7.5 1 -3
v -6.5 1 -3
v -6.5 5 4
v 1.5 5 4
v -6.5 5 -4
v 1.5 5 -4
v -7.5 9 -1
v -2.5 9 -1
v -7.5 9 -2
v -5.5 9 -2
v -4.5 9 -2
v -2.5 9 -2
v -7.5 6 4
v 7.5 6 4
v 1.5 6 -0
v 2.5 6 -0
v 6.5 6 -0
v 7.5 6 -0
v -6.5 6 -1
v -3.5 6 -1
v 2.5 6 -1
v 3.5 6 -1
v 4.5 6 -1
v 5.5 6 -1
v -6.5 6 -3
v -3.5 6 -3
v -7.5 6 -4
v 1.5 6 -4
v 5.5 6 -4
v 6.5 6 -4
v -6.5 7 -1
v -3.5 7 -1
v -5.5 7 -2
v -4.5 7 -2
v -6.5 7 -3
v -5.5 7 -3
v -4.5 7 -3
v -3.5 7 -3
v 1.5 10 -0
v 2.5 10 -0
v 6.5 10 -0
v 7.5 10 -0
v -7.5 10 -1
v -2.5 10 -1
v 2.5 10 -1
v 3.5 10 -1
v 4.5 10 -1
v 5.5 10 -1
v -7.5 10 -2
v -5.5 10 -2
v -4.5 10 -2
v -2.5 10 -2
v -5.5 10 -3
v -4.5 10 -3
v 1.5 10 -4
v 2.5 10 -4
v 3.5 10 -4
v 4.5 10 -4
v 5.5 10 -4
v 6.5 10 -4
v 7.5 10 -4

# faces
f 5/3/1 2/3/1 1/3/1
f 6/3/1 4/3/1 3/3/1
f 7/3/1 5/3/1 1/3/1
f 7/3/1 6/3/1 5/3/1
f 8/3/1 4/3/1 6/3/1
f 8/3/1 6/3/1 7/3/1
f 11/6/1 10/6/1 9/6/1
f 12/6/1 10/6/1 11/6/1
f 15/7/1 14/7/1 13/7/1
f 16/7/1 14/7/1 15/7/1
f 19/7/1 18/7/1 17/7/1
f 20/7/1 18/7/1 19/7/1
f 21/7/1 18/7/1 20/7/1
f 24/3/1 23/3/1 22/3/1
f 25/3/1 23/3/1 24/3/1
f 28/3/1 27/3/1 26/3/1
f 29/3/1 27/3/1 28/3/1
f 32/3/1 31/3/1 30/3/1
f 33/3/1 31/3/1 32/3/1
f 34/3/2 35/3/2 38/3/2
f 36/3/2 37/3/2 39/3/2
f 34/3/2 38/3/2 40/3/2
f 38/3/2 39/3/2 40/3/2
f 39/3/2 37/3/2 41/3/2
f 40/3/2 39/3/2 41/3/2
f 42/7/2 43/7/2 44/7/2
f 44/7/2 43/7/2 45/7/2
f 45/7/2 43/7/2 46/7/2
f 47/7/2 48/7/2 49/7/2
f 49/7/2 48/7/2 50/7/2
f 51/6/2 52/6/2 53/6/2
f 53/6/2 52/6/2 54/6/2
f 55/3/2 56/3/2 57/3/2
f 57/3/2 56/3/2 58/3/2
f 59/1/2 60/1/2 61/1/2
f 61/1/2 60/1/2 62/1/2
f 63/3/2 64/3/2 65/3/2
f 65/3/2 64/3/2 66/3/2
f 66/3/2 64/3/2 67/3/2
f 67/3/2 64/3/2 68/3/2
f 71/3/3 70/3/3 69/3/3
f 72/3/3 70/3/3 71/3/3
f 74/3/3 70/3/3 72/3/3
f 75/3/3 74/3/3 73/3/3
f 76/3/3 74/3/3 75/3/3
f 77/3/3 74/3/3 76/3/3
f 78/3/3 70/3/3 74/3/3
f 78/3/3 74/3/3 77/3/3
f 79/2/3 76/2/3 75/2/3
f 80/3/3 77/3/3 76/3/3
f 80/2/3 76/2/3 79/2/3
f 81/2/3 78/2/3 77/2/3
f 81/3/3 77/3/3 80/3/3
f 82/3/3 70/3/3 78/3/3
f 82/2/3 78/2/3 81/2/3
f 83/3/3 81/3/3 80/3/3
f 83/3/3 80/3/3 79/3/3
f 83/3/3 82/3/3 81/3/3
f 84/3/3 70/3/3 82/3/3
f 84/3/3 82/3/3 83/3/3
f 87/3/3 86/3/3 85/3/3
f 88/3/3 86/3/3 87/3/3
f 91/3/3 90/3/3 89/3/3
f 92/3/3 90/3/3 91/3/3
f 97/7/3 96/7/3 95/7/3
f 98/7/3 96/7/3 97/7/3
f 99/6/3 94/6/3 93/6/3
f 100/6/3 94/6/3 99/6/3
f 103/5/3 102/5/3 101/5/3
f 104/5/3 102/5/3 103/5/3
f 105/4/3 104/4/3 103/4/3
f 106/4/3 104/4/3 105/4/3
f 107/1/3 106/1/3 105/1/3
f 108/1/3 106/1/3 107/1/3
f 111/7/3 110/7/3 109/7/3
f 112/7/3 110/7/3 111/7/3
f 115/3/3 114/3/3 113/3/3
f 116/3/3 114/3/3 115/3/3
f 117/3/4 118/3/4 119/3/4
f 119/3/4 118/3/4 120/3/4
f 121/6/4 122/6/4 123/6/4
f 123/6/4 122/6/4 124/6/4
f 125/6/4 126/6/4 127/6/4
f 127/6/4 126/6/4 128/6/4
f 129/7/4 130/7/4 131/7/4
f 129/7/4 131/7/4 133/7/4
f 131/7/4 132/7/4 133/7/4
f 133/7/4 132/7/4 134/7/4
f 129/7/4 133/7/4 135/7/4
f 135/7/4 133/7/4 136/7/4
f 137/3/4 138/3/4 139/3/4
f 139/3/4 138/3/4 140/3/4
f 140/3/4 138/3/4 142/3/4
f 142/3/4 138/3/4 143/3/4
f 141/3/4 142/3/4 145/3/4
f 143/3/4 144/3/4 145/3/4
f 142/3/4 143/3/4 145/3/4
f 145/3/4 144/3/4 146/3/4
f 141/3/4 145/3/4 147/3/4
f 145/5/4 146/5/4 147/5/4
f 147/5/4 146/5/4 148/5/4
f 141/3/4 147/3/4 149/3/4
f 147/4/4 148/4/4 149/4/4
f 149/4/4 148/4/4 150/4/4
f 141/3/4 149/3/4 151/3/4
f 149/1/4 150/1/4 151/1/4
f 151/1/4 150/1/4 152/1/4
f 141/3/4 151/3/4 153/3/4
f 141/3/4 153/3/4 155/3/4
f 153/3/4 154/3/4 155/3/4
f 155/3/4 154/3/4 156/3/4
f 163/3/5 158/3/5 157/3/5
f 164/3/5 158/3/5 163/3/5
f 165/3/5 160/3/5 159/3/5
f 165/2/5 161/2/5 160/2/5
f 166/3/5 162/3/5 161/3/5
f 166/2/5 161/2/5 165/2/5
f 169/3/5 168/3/5 167/3/5
f 170/3/5 168/3/5 169/3/5
f 171/3/5 165/3/5 159/3/5
f 171/3/5 166/3/5 165/3/5
f 172/3/5 162/3/5 166/3/5
f 172/3/5 166/3/5 171/3/5
f 175/3/5 174/3/5 173/3/5
f 176/3/5 174/3/5 175/3/5
f 179/3/5 178/3/5 177/3/5
f 180/3/5 178/3/5 179/3/5
f 183/6/5 182/6/5 181/6/5
f 184/6/5 182/6/5 183/6/5
f 185/6/5 182/6/5 184/6/5
f 186/6/5 182/6/5 185/6/5
f 187/3/6 188/3/6 189/3/6
f 189/3/6 188/3/6 190/3/6
f 190/3/6 188/3/6 191/3/6
f 191/3/6 188/3/6 192/3/6
f 187/3/6 189/3/6 193/3/6
f 193/3/6 189/3/6 194/3/6
f 190/3/6 191/3/6 195/3/6
f 195/3/6 191/3/6 196/3/6
f 196/3/6 191/3/6 197/3/6
f 197/3/6 191/3/6 198/3/6
f 187/3/6 193/3/6 199/3/6
f 194/3/6 189/3/6 200/3/6
f 187/3/6 199/3/6 201/3/6
f 199/3/6 200/3/6 201/3/6
f 200/3/6 189/3/6 202/3/6
f 201/3/6 200/3/6 202/3/6
f 198/3/6 191/3/6 203/3/6
f 203/3/6 191/3/6 204/3/6
f 205/7/6 206/7/6 207/7/6
f 207/7/6 206/7/6 208/7/6
f 205/7/6 207/7/6 209/7/6
f 209/7/6 207/7/6 210/7/6
f 208/7/6 206/7/6 211/7/6
f 211/7/6 206/7/6 212/7/6
f 213/3/6 214/3/6 219/3/6
f 217/6/6 218/6/6 223/6/6
f 223/6/6 218/6/6 224/6/6
f 224/6/6 218/6/6 225/6/6
f 225/6/6 218/6/6 226/6/6
f 224/7/6 225/7/6 227/7/6
f 227/7/6 225/7/6 228/7/6
f 213/3/6 219/3/6 229/3/6
f 219/5/6 220/5/6 230/5/6
f 229/3/6 219/3/6 230/3/6
f 220/4/6 221/4/6 231/4/6
f 230/5/6 220/5/6 231/5/6
f 221/1/6 222/1/6 232/1/6
f 231/4/6 221/4/6 232/4/6
f 232/1/6 222/1/6 233/1/6
f 215/3/6 216/3/6 234/3/6
f 234/3/6 216/3/6 235/3/6
