# MagicaVoxel @ ephtracy

# material
mtllib item_tochu.mtl
usemtl palette

# normals
vn -1 0 0
vn 1 0 0
vn 0 0 1
vn 0 0 -1
vn 0 -1 0
vn 0 1 0

# texcoords
vt 0.00585938 0.5
vt 0.0214844 0.5
vt 0.943359 0.5
vt 0.986328 0.5

# verts
v -4 11 1
v -4 11 -1
v -4 13 1
v -4 13 -1
v -4 14 1
v -4 14 -1
v -4 15 1
v -4 15 -1
v -3 9 1
v -3 9 -1
v -3 11 2
v -3 11 1
v -3 11 -1
v -3 11 -2
v -3 13 2
v -3 13 1
v -3 13 -1
v -3 13 -2
v -3 14 2
v -3 14 1
v -3 14 -1
v -3 14 -2
v -3 15 2
v -3 15 1
v -3 15 -1
v -3 15 -2
v -2 1 1
v -2 1 -1
v -2 9 2
v -2 9 1
v -2 9 -1
v -2 9 -2
v -2 11 3
v -2 11 2
v -2 11 1
v -2 11 -1
v -2 11 -2
v -2 11 -3
v -2 13 3
v -2 13 2
v -2 13 -2
v -2 13 -3
v -2 14 3
v -2 14 2
v -2 14 -2
v -2 14 -3
v -2 15 3
v -2 15 2
v -2 15 -2
v -2 15 -3
v -1 0 1
v -1 0 -2
v -1 1 2
v -1 1 1
v -1 1 -1
v -1 9 3
v -1 9 2
v -1 9 1
v -1 9 -1
v -1 9 -2
v -1 9 -3
v -1 11 4
v -1 11 3
v -1 11 2
v -1 11 -2
v -1 11 -3
v -1 11 -4
v -1 13 4
v -1 13 3
v -1 13 -3
v -1 13 -4
v -1 14 4
v -1 14 3
v -1 14 -3
v -1 14 -4
v -1 15 4
v -1 15 3
v -1 15 -3
v -1 15 -4
v 1 2 1
v 1 2 -1
v 1 10 2
v 1 10 1
v 1 10 -1
v 1 10 -2
v 1 12 -2
v 1 12 -3
v 1 13 2
v 1 13 1
v 1 13 -1
v 1 13 -2
v 1 13 -3
v 1 14 2
v 1 14 1
v 1 14 -1
v 1 14 -2
v 2 10 1
v 2 10 -1
v 2 13 1
v 2 13 -1
v 2 14 1
v 2 14 -0
v 2 14 -1
v -2 10 1
v -2 10 -1
v -2 12 -1
v -2 12 -2
v -2 13 1
v -2 13 -1
v -2 13 -2
v -2 14 1
v -2 14 -1
v -1 2 1
v -1 2 -1
v -1 10 2
v -1 10 1
v -1 10 -1
v -1 10 -2
v -1 12 -1
v -1 12 -2
v -1 12 -3
v -1 13 2
v -1 13 1
v -1 13 -1
v -1 13 -2
v -1 13 -3
v -1 14 2
v -1 14 1
v -1 14 -1
v -1 14 -2
v 0 0 -1
v 0 0 -2
v 0 1 -1
v 0 1 -2
v 1 0 1
v 1 0 -1
v 1 1 2
v 1 1 1
v 1 1 -1
v 1 1 -2
v 1 9 3
v 1 9 2
v 1 9 1
v 1 9 -1
v 1 9 -2
v 1 9 -3
v 1 11 4
v 1 11 3
v 1 11 2
v 1 11 -2
v 1 11 -3
v 1 11 -4
v 1 13 4
v 1 13 3
v 1 13 -3
v 1 13 -4
v 1 14 4
v 1 14 3
v 1 14 -3
v 1 14 -4
v 1 15 4
v 1 15 3
v 1 15 -3
v 1 15 -4
v 2 1 1
v 2 1 -1
v 2 9 2
v 2 9 1
v 2 9 -1
v 2 9 -2
v 2 11 3
v 2 11 2
v 2 11 1
v 2 11 -1
v 2 11 -2
v 2 11 -3
v 2 13 3
v 2 13 2
v 2 13 -2
v 2 13 -3
v 2 14 3
v 2 14 2
v 2 14 -2
v 2 14 -3
v 2 15 3
v 2 15 2
v 2 15 -2
v 2 15 -3
v 3 9 1
v 3 9 -1
v 3 11 2
v 3 11 1
v 3 11 -1
v 3 11 -2
v 3 13 2
v 3 13 1
v 3 13 -1
v 3 13 -2
v 3 14 2
v 3 14 1
v 3 14 -1
v 3 14 -2
v 3 15 2
v 3 15 1
v 3 15 -1
v 3 15 -2
v 4 11 1
v 4 11 -1
v 4 13 1
v 4 13 -1
v 4 14 1
v 4 14 -1
v 4 15 1
v 4 15 -1
v -1 11 4
v -1 13 4
v -1 14 4
v -1 15 4
v 1 11 4
v 1 13 4
v 1 14 4
v 1 15 4
v -2 11 3
v -2 13 3
v -2 14 3
v -2 15 3
v -1 9 3
v -1 11 3
v -1 13 3
v -1 14 3
v -1 15 3
v 1 9 3
v 1 11 3
v 1 13 3
v 1 14 3
v 1 15 3
v 2 11 3
v 2 13 3
v 2 14 3
v 2 15 3
v -3 11 2
v -3 13 2
v -3 14 2
v -3 15 2
v -2 9 2
v -2 11 2
v -2 13 2
v -2 14 2
v -2 15 2
v -1 1 2
v -1 9 2
v -1 11 2
v 1 1 2
v 1 9 2
v 1 11 2
v 2 9 2
v 2 11 2
v 2 13 2
v 2 14 2
v 2 15 2
v 3 11 2
v 3 13 2
v 3 14 2
v 3 15 2
v -4 11 1
v -4 13 1
v -4 14 1
v -4 15 1
v -3 9 1
v -3 11 1
v -3 13 1
v -3 14 1
v -3 15 1
v -2 1 1
v -2 9 1
v -2 11 1
v -1 0 1
v -1 1 1
v -1 9 1
v 1 0 1
v 1 1 1
v 1 9 1
v 2 1 1
v 2 9 1
v 2 11 1
v 3 9 1
v 3 11 1
v 3 13 1
v 3 14 1
v 3 15 1
v 4 11 1
v 4 13 1
v 4 14 1
v 4 15 1
v -2 10 -1
v -2 12 -1
v -2 13 -1
v -2 14 -1
v -1 2 -1
v -1 10 -1
v -1 12 -1
v -1 13 -1
v -1 14 -1
v 1 2 -1
v 1 10 -1
v 1 13 -1
v 1 14 -1
v 2 10 -1
v 2 13 -1
v 2 14 -1
v -2 12 -2
v -2 13 -2
v -1 10 -2
v -1 12 -2
v -1 13 -2
v -1 14 -2
v 1 10 -2
v 1 12 -2
v 1 13 -2
v 1 14 -2
v -1 12 -3
v -1 13 -3
v 1 12 -3
v 1 13 -3
v -1 10 2
v -1 13 2
v -1 14 2
v 0 14 2
v 1 10 2
v 1 13 2
v 1 14 2
v -2 10 1
v -2 13 1
v -2 14 1
v -1 2 1
v -1 10 1
v -1 13 1
v -1 14 1
v 1 2 1
v 1 10 1
v 1 13 1
v 1 14 1
v 2 10 1
v 2 13 1
v 2 14 1
v -4 11 -1
v -4 13 -1
v -4 14 -1
v -4 15 -1
v -3 9 -1
v -3 11 -1
v -3 13 -1
v -3 14 -1
v -3 15 -1
v -2 1 -1
v -2 9 -1
v -2 11 -1
v -1 1 -1
v -1 9 -1
v 0 0 -1
v 0 1 -1
v 1 0 -1
v 1 1 -1
v 1 9 -1
v 2 1 -1
v 2 9 -1
v 2 11 -1
v 3 9 -1
v 3 11 -1
v 3 13 -1
v 3 14 -1
v 3 15 -1
v 4 11 -1
v 4 13 -1
v 4 14 -1
v 4 15 -1
v -3 11 -2
v -3 13 -2
v -3 14 -2
v -3 15 -2
v -2 9 -2
v -2 11 -2
v -2 13 -2
v -2 14 -2
v -2 15 -2
v -1 0 -2
v -1 9 -2
v -1 11 -2
v 0 0 -2
v 0 1 -2
v 1 1 -2
v 1 9 -2
v 1 11 -2
v 2 9 -2
v 2 11 -2
v 2 13 -2
v 2 14 -2
v 2 15 -2
v 3 11 -2
v 3 13 -2
v 3 14 -2
v 3 15 -2
v -2 11 -3
v -2 13 -3
v -2 14 -3
v -2 15 -3
v -1 9 -3
v -1 11 -3
v -1 13 -3
v -1 14 -3
v -1 15 -3
v 1 9 -3
v 1 11 -3
v 1 13 -3
v 1 14 -3
v 1 15 -3
v 2 11 -3
v 2 13 -3
v 2 14 -3
v 2 15 -3
v -1 11 -4
v -1 13 -4
v -1 14 -4
v -1 15 -4
v 1 11 -4
v 1 13 -4
v 1 14 -4
v 1 15 -4
v -1 0 1
v 1 0 1
v 0 0 -1
v 1 0 -1
v -1 0 -2
v 0 0 -2
v -1 1 2
v 1 1 2
v -2 1 1
v -1 1 1
v 1 1 1
v 2 1 1
v -2 1 -1
v -1 1 -1
v 0 1 -1
v 1 1 -1
v 2 1 -1
v 0 1 -2
v 1 1 -2
v -1 9 3
v 1 9 3
v -2 9 2
v -1 9 2
v 1 9 2
v 2 9 2
v -3 9 1
v -2 9 1
v -1 9 1
v 1 9 1
v 2 9 1
v 3 9 1
v -3 9 -1
v -2 9 -1
v -1 9 -1
v 1 9 -1
v 2 9 -1
v 3 9 -1
v -2 9 -2
v -1 9 -2
v 1 9 -2
v 2 9 -2
v -1 9 -3
v 1 9 -3
v -1 11 4
v 1 11 4
v -2 11 3
v -1 11 3
v 1 11 3
v 2 11 3
v -3 11 2
v -2 11 2
v -1 11 2
v 1 11 2
v 2 11 2
v 3 11 2
v -4 11 1
v -3 11 1
v -2 11 1
v 2 11 1
v 3 11 1
v 4 11 1
v -4 11 -1
v -3 11 -1
v -2 11 -1
v 2 11 -1
v 3 11 -1
v 4 11 -1
v -3 11 -2
v -2 11 -2
v -1 11 -2
v 1 11 -2
v 2 11 -2
v 3 11 -2
v -2 11 -3
v -1 11 -3
v 1 11 -3
v 2 11 -3
v -1 11 -4
v 1 11 -4
v -2 13 -1
v -1 13 -1
v -2 13 -2
v -1 13 -2
v 1 13 -2
v -1 13 -3
v 1 13 -3
v -1 14 2
v 0 14 2
v 1 14 2
v -2 14 1
v -1 14 1
v 0 14 1
v 1 14 1
v 2 14 1
v 1 14 -0
v 2 14 -0
v -2 14 -1
v -1 14 -1
v 1 14 -1
v 2 14 -1
v -1 14 -2
v 1 14 -2
v -1 2 1
v 1 2 1
v -1 2 -1
v 1 2 -1
v -1 10 2
v 1 10 2
v -2 10 1
v -1 10 1
v 1 10 1
v 2 10 1
v -2 10 -1
v -1 10 -1
v 1 10 -1
v 2 10 -1
v -1 10 -2
v 1 10 -2
v -2 12 -1
v -1 12 -1
v -2 12 -2
v -1 12 -2
v 1 12 -2
v -1 12 -3
v 1 12 -3
v -1 15 4
v 1 15 4
v -2 15 3
v -1 15 3
v 1 15 3
v 2 15 3
v -3 15 2
v -2 15 2
v -1 15 2
v 0 15 2
v 1 15 2
v 2 15 2
v 3 15 2
v -4 15 1
v -3 15 1
v -2 15 1
v 0 15 1
v 1 15 1
v 2 15 1
v 3 15 1
v 4 15 1
v 1 15 -0
v 2 15 -0
v -4 15 -1
v -3 15 -1
v -2 15 -1
v 2 15 -1
v 3 15 -1
v 4 15 -1
v -3 15 -2
v -2 15 -2
v -1 15 -2
v 1 15 -2
v 2 15 -2
v 3 15 -2
v -2 15 -3
v -1 15 -3
v 1 15 -3
v 2 15 -3
v -1 15 -4
v 1 15 -4

# faces
f 3/3/1 2/3/1 1/3/1
f 4/3/1 2/3/1 3/3/1
f 5/1/1 4/1/1 3/1/1
f 6/1/1 4/1/1 5/1/1
f 7/4/1 6/4/1 5/4/1
f 8/4/1 6/4/1 7/4/1
f 12/3/1 10/3/1 9/3/1
f 13/3/1 10/3/1 12/3/1
f 15/3/1 12/3/1 11/3/1
f 16/3/1 12/3/1 15/3/1
f 17/3/1 14/3/1 13/3/1
f 18/3/1 14/3/1 17/3/1
f 19/1/1 16/1/1 15/1/1
f 20/1/1 16/1/1 19/1/1
f 21/1/1 18/1/1 17/1/1
f 22/1/1 18/1/1 21/1/1
f 23/4/1 20/4/1 19/4/1
f 24/4/1 20/4/1 23/4/1
f 25/4/1 22/4/1 21/4/1
f 26/4/1 22/4/1 25/4/1
f 30/3/1 28/3/1 27/3/1
f 31/3/1 28/3/1 30/3/1
f 34/3/1 30/3/1 29/3/1
f 35/3/1 30/3/1 34/3/1
f 36/3/1 32/3/1 31/3/1
f 37/3/1 32/3/1 36/3/1
f 39/3/1 34/3/1 33/3/1
f 40/3/1 34/3/1 39/3/1
f 41/3/1 38/3/1 37/3/1
f 42/3/1 38/3/1 41/3/1
f 43/1/1 40/1/1 39/1/1
f 44/1/1 40/1/1 43/1/1
f 45/1/1 42/1/1 41/1/1
f 46/1/1 42/1/1 45/1/1
f 47/4/1 44/4/1 43/4/1
f 48/4/1 44/4/1 47/4/1
f 49/4/1 46/4/1 45/4/1
f 50/4/1 46/4/1 49/4/1
f 54/3/1 52/3/1 51/3/1
f 55/3/1 52/3/1 54/3/1
f 57/3/1 54/3/1 53/3/1
f 58/3/1 54/3/1 57/3/1
f 59/3/1 52/3/1 55/3/1
f 60/3/1 52/3/1 59/3/1
f 63/3/1 57/3/1 56/3/1
f 64/3/1 57/3/1 63/3/1
f 65/3/1 61/3/1 60/3/1
f 66/3/1 61/3/1 65/3/1
f 68/3/1 63/3/1 62/3/1
f 69/3/1 63/3/1 68/3/1
f 70/3/1 67/3/1 66/3/1
f 71/3/1 67/3/1 70/3/1
f 72/1/1 69/1/1 68/1/1
f 73/1/1 69/1/1 72/1/1
f 74/1/1 71/1/1 70/1/1
f 75/1/1 71/1/1 74/1/1
f 76/4/1 73/4/1 72/4/1
f 77/4/1 73/4/1 76/4/1
f 78/4/1 75/4/1 74/4/1
f 79/4/1 75/4/1 78/4/1
f 83/3/1 81/3/1 80/3/1
f 84/3/1 81/3/1 83/3/1
f 86/3/1 85/3/1 84/3/1
f 88/3/1 83/3/1 82/3/1
f 89/3/1 83/3/1 88/3/1
f 90/3/1 87/3/1 86/3/1
f 90/3/1 86/3/1 84/3/1
f 91/3/1 87/3/1 90/3/1
f 92/3/1 87/3/1 91/3/1
f 93/1/1 89/1/1 88/1/1
f 94/1/1 89/1/1 93/1/1
f 95/1/1 91/1/1 90/1/1
f 96/1/1 91/1/1 95/1/1
f 99/3/1 98/3/1 97/3/1
f 100/3/1 98/3/1 99/3/1
f 101/1/1 100/1/1 99/1/1
f 102/1/1 100/1/1 101/1/1
f 103/1/1 100/1/1 102/1/1
f 104/3/2 105/3/2 106/3/2
f 104/3/2 106/3/2 108/3/2
f 106/3/2 107/3/2 108/3/2
f 108/3/2 107/3/2 109/3/2
f 109/3/2 107/3/2 110/3/2
f 108/1/2 109/1/2 111/1/2
f 111/1/2 109/1/2 112/1/2
f 113/3/2 114/3/2 116/3/2
f 116/3/2 114/3/2 117/3/2
f 117/3/2 118/3/2 119/3/2
f 119/3/2 118/3/2 120/3/2
f 115/3/2 116/3/2 122/3/2
f 122/3/2 116/3/2 123/3/2
f 120/3/2 121/3/2 125/3/2
f 125/3/2 121/3/2 126/3/2
f 122/1/2 123/1/2 127/1/2
f 127/1/2 123/1/2 128/1/2
f 124/1/2 125/1/2 129/1/2
f 129/1/2 125/1/2 130/1/2
f 131/3/2 132/3/2 133/3/2
f 133/3/2 132/3/2 134/3/2
f 135/3/2 136/3/2 138/3/2
f 138/3/2 136/3/2 139/3/2
f 137/3/2 138/3/2 142/3/2
f 142/3/2 138/3/2 143/3/2
f 139/3/2 140/3/2 144/3/2
f 144/3/2 140/3/2 145/3/2
f 141/3/2 142/3/2 148/3/2
f 148/3/2 142/3/2 149/3/2
f 145/3/2 146/3/2 150/3/2
f 150/3/2 146/3/2 151/3/2
f 147/3/2 148/3/2 153/3/2
f 153/3/2 148/3/2 154/3/2
f 151/3/2 152/3/2 155/3/2
f 155/3/2 152/3/2 156/3/2
f 153/1/2 154/1/2 157/1/2
f 157/1/2 154/1/2 158/1/2
f 155/1/2 156/1/2 159/1/2
f 159/1/2 156/1/2 160/1/2
f 157/4/2 158/4/2 161/4/2
f 161/4/2 158/4/2 162/4/2
f 159/4/2 160/4/2 163/4/2
f 163/4/2 160/4/2 164/4/2
f 165/3/2 166/3/2 168/3/2
f 168/3/2 166/3/2 169/3/2
f 167/3/2 168/3/2 172/3/2
f 172/3/2 168/3/2 173/3/2
f 169/3/2 170/3/2 174/3/2
f 174/3/2 170/3/2 175/3/2
f 171/3/2 172/3/2 177/3/2
f 177/3/2 172/3/2 178/3/2
f 175/3/2 176/3/2 179/3/2
f 179/3/2 176/3/2 180/3/2
f 177/1/2 178/1/2 181/1/2
f 181/1/2 178/1/2 182/1/2
f 179/1/2 180/1/2 183/1/2
f 183/1/2 180/1/2 184/1/2
f 181/4/2 182/4/2 185/4/2
f 185/4/2 182/4/2 186/4/2
f 183/4/2 184/4/2 187/4/2
f 187/4/2 184/4/2 188/4/2
f 189/3/2 190/3/2 192/3/2
f 192/3/2 190/3/2 193/3/2
f 191/3/2 192/3/2 195/3/2
f 195/3/2 192/3/2 196/3/2
f 193/3/2 194/3/2 197/3/2
f 197/3/2 194/3/2 198/3/2
f 195/1/2 196/1/2 199/1/2
f 199/1/2 196/1/2 200/1/2
f 197/1/2 198/1/2 201/1/2
f 201/1/2 198/1/2 202/1/2
f 199/4/2 200/4/2 203/4/2
f 203/4/2 200/4/2 204/4/2
f 201/4/2 202/4/2 205/4/2
f 205/4/2 202/4/2 206/4/2
f 207/3/2 208/3/2 209/3/2
f 209/3/2 208/3/2 210/3/2
f 209/1/2 210/1/2 211/1/2
f 211/1/2 210/1/2 212/1/2
f 211/4/2 212/4/2 213/4/2
f 213/4/2 212/4/2 214/4/2
f 219/3/3 216/3/3 215/3/3
f 220/1/3 217/1/3 216/1/3
f 220/3/3 216/3/3 219/3/3
f 221/4/3 218/4/3 217/4/3
f 221/1/3 217/1/3 220/1/3
f 222/4/3 218/4/3 221/4/3
f 228/3/3 224/3/3 223/3/3
f 229/1/3 225/1/3 224/1/3
f 229/3/3 224/3/3 228/3/3
f 230/4/3 226/4/3 225/4/3
f 230/1/3 225/1/3 229/1/3
f 231/4/3 226/4/3 230/4/3
f 232/3/3 228/3/3 227/3/3
f 233/3/3 228/3/3 232/3/3
f 237/3/3 234/3/3 233/3/3
f 238/1/3 235/1/3 234/1/3
f 238/3/3 234/3/3 237/3/3
f 239/4/3 236/4/3 235/4/3
f 239/1/3 235/1/3 238/1/3
f 240/4/3 236/4/3 239/4/3
f 246/3/3 242/3/3 241/3/3
f 247/1/3 243/1/3 242/1/3
f 247/3/3 242/3/3 246/3/3
f 248/4/3 244/4/3 243/4/3
f 248/1/3 243/1/3 247/1/3
f 249/4/3 244/4/3 248/4/3
f 251/3/3 246/3/3 245/3/3
f 252/3/3 246/3/3 251/3/3
f 253/3/3 251/3/3 250/3/3
f 254/3/3 251/3/3 253/3/3
f 256/3/3 255/3/3 254/3/3
f 257/3/3 255/3/3 256/3/3
f 261/3/3 258/3/3 257/3/3
f 262/1/3 259/1/3 258/1/3
f 262/3/3 258/3/3 261/3/3
f 263/4/3 260/4/3 259/4/3
f 263/1/3 259/1/3 262/1/3
f 264/4/3 260/4/3 263/4/3
f 270/3/3 266/3/3 265/3/3
f 271/1/3 267/1/3 266/1/3
f 271/3/3 266/3/3 270/3/3
f 272/4/3 268/4/3 267/4/3
f 272/1/3 267/1/3 271/1/3
f 273/4/3 268/4/3 272/4/3
f 275/3/3 270/3/3 269/3/3
f 276/3/3 270/3/3 275/3/3
f 278/3/3 275/3/3 274/3/3
f 279/3/3 275/3/3 278/3/3
f 280/3/3 278/3/3 277/3/3
f 281/3/3 278/3/3 280/3/3
f 283/3/3 282/3/3 281/3/3
f 284/3/3 282/3/3 283/3/3
f 286/3/3 285/3/3 284/3/3
f 287/3/3 285/3/3 286/3/3
f 291/3/3 288/3/3 287/3/3
f 292/1/3 289/1/3 288/1/3
f 292/3/3 288/3/3 291/3/3
f 293/4/3 290/4/3 289/4/3
f 293/1/3 289/1/3 292/1/3
f 294/4/3 290/4/3 293/4/3
f 300/3/3 296/3/3 295/3/3
f 301/3/3 296/3/3 300/3/3
f 302/1/3 298/1/3 297/1/3
f 303/1/3 298/1/3 302/1/3
f 304/3/3 300/3/3 299/3/3
f 305/3/3 300/3/3 304/3/3
f 308/3/3 306/3/3 305/3/3
f 309/1/3 307/1/3 306/1/3
f 309/3/3 306/3/3 308/3/3
f 310/1/3 307/1/3 309/1/3
f 314/3/3 312/3/3 311/3/3
f 315/3/3 312/3/3 314/3/3
f 317/3/3 314/3/3 313/3/3
f 318/3/3 314/3/3 317/3/3
f 319/1/3 316/1/3 315/1/3
f 320/1/3 316/1/3 319/1/3
f 323/3/3 322/3/3 321/3/3
f 324/3/3 322/3/3 323/3/3
f 326/1/4 327/1/4 328/1/4
f 325/3/4 326/3/4 329/3/4
f 326/1/4 328/1/4 330/1/4
f 329/3/4 326/3/4 330/3/4
f 330/1/4 328/1/4 331/1/4
f 332/3/4 333/3/4 336/3/4
f 333/1/4 334/1/4 337/1/4
f 336/3/4 333/3/4 337/3/4
f 337/1/4 334/1/4 338/1/4
f 335/3/4 336/3/4 339/3/4
f 339/3/4 336/3/4 340/3/4
f 340/3/4 341/3/4 343/3/4
f 341/1/4 342/1/4 344/1/4
f 343/3/4 341/3/4 344/3/4
f 344/1/4 342/1/4 345/1/4
f 346/3/4 347/3/4 351/3/4
f 347/1/4 348/1/4 352/1/4
f 351/3/4 347/3/4 352/3/4
f 348/4/4 349/4/4 353/4/4
f 352/1/4 348/1/4 353/1/4
f 353/4/4 349/4/4 354/4/4
f 350/3/4 351/3/4 356/3/4
f 356/3/4 351/3/4 357/3/4
f 355/3/4 356/3/4 358/3/4
f 358/3/4 356/3/4 359/3/4
f 360/3/4 361/3/4 362/3/4
f 362/3/4 361/3/4 363/3/4
f 363/3/4 364/3/4 365/3/4
f 365/3/4 364/3/4 366/3/4
f 366/3/4 367/3/4 368/3/4
f 368/3/4 367/3/4 369/3/4
f 369/3/4 370/3/4 373/3/4
f 370/1/4 371/1/4 374/1/4
f 373/3/4 370/3/4 374/3/4
f 371/4/4 372/4/4 375/4/4
f 374/1/4 371/1/4 375/1/4
f 375/4/4 372/4/4 376/4/4
f 377/3/4 378/3/4 382/3/4
f 378/1/4 379/1/4 383/1/4
f 382/3/4 378/3/4 383/3/4
f 379/4/4 380/4/4 384/4/4
f 383/1/4 379/1/4 384/1/4
f 384/4/4 380/4/4 385/4/4
f 381/3/4 382/3/4 387/3/4
f 387/3/4 382/3/4 388/3/4
f 386/3/4 387/3/4 389/3/4
f 389/3/4 387/3/4 390/3/4
f 390/3/4 387/3/4 391/3/4
f 391/3/4 387/3/4 392/3/4
f 392/3/4 393/3/4 394/3/4
f 394/3/4 393/3/4 395/3/4
f 395/3/4 396/3/4 399/3/4
f 396/1/4 397/1/4 400/1/4
f 399/3/4 396/3/4 400/3/4
f 397/4/4 398/4/4 401/4/4
f 400/1/4 397/1/4 401/1/4
f 401/4/4 398/4/4 402/4/4
f 403/3/4 404/3/4 408/3/4
f 404/1/4 405/1/4 409/1/4
f 408/3/4 404/3/4 409/3/4
f 405/4/4 406/4/4 410/4/4
f 409/1/4 405/1/4 410/1/4
f 410/4/4 406/4/4 411/4/4
f 407/3/4 408/3/4 412/3/4
f 412/3/4 408/3/4 413/3/4
f 413/3/4 414/3/4 417/3/4
f 414/1/4 415/1/4 418/1/4
f 417/3/4 414/3/4 418/3/4
f 415/4/4 416/4/4 419/4/4
f 418/1/4 415/1/4 419/1/4
f 419/4/4 416/4/4 420/4/4
f 421/3/4 422/3/4 425/3/4
f 422/1/4 423/1/4 426/1/4
f 425/3/4 422/3/4 426/3/4
f 423/4/4 424/4/4 427/4/4
f 426/1/4 423/1/4 427/1/4
f 427/4/4 424/4/4 428/4/4
f 431/3/5 430/3/5 429/3/5
f 432/3/5 430/3/5 431/3/5
f 433/3/5 431/3/5 429/3/5
f 434/3/5 431/3/5 433/3/5
f 438/3/5 436/3/5 435/3/5
f 439/3/5 436/3/5 438/3/5
f 441/3/5 438/3/5 437/3/5
f 442/3/5 438/3/5 441/3/5
f 444/3/5 440/3/5 439/3/5
f 445/3/5 440/3/5 444/3/5
f 446/3/5 444/3/5 443/3/5
f 447/3/5 444/3/5 446/3/5
f 451/3/5 449/3/5 448/3/5
f 452/3/5 449/3/5 451/3/5
f 455/3/5 451/3/5 450/3/5
f 456/3/5 451/3/5 455/3/5
f 457/3/5 453/3/5 452/3/5
f 458/3/5 453/3/5 457/3/5
f 460/3/5 455/3/5 454/3/5
f 461/3/5 455/3/5 460/3/5
f 464/3/5 459/3/5 458/3/5
f 465/3/5 459/3/5 464/3/5
f 466/3/5 462/3/5 461/3/5
f 467/3/5 462/3/5 466/3/5
f 468/3/5 464/3/5 463/3/5
f 469/3/5 464/3/5 468/3/5
f 470/3/5 468/3/5 467/3/5
f 471/3/5 468/3/5 470/3/5
f 475/3/5 473/3/5 472/3/5
f 476/3/5 473/3/5 475/3/5
f 479/3/5 475/3/5 474/3/5
f 480/3/5 475/3/5 479/3/5
f 481/3/5 477/3/5 476/3/5
f 482/3/5 477/3/5 481/3/5
f 485/3/5 479/3/5 478/3/5
f 486/3/5 479/3/5 485/3/5
f 487/3/5 483/3/5 482/3/5
f 488/3/5 483/3/5 487/3/5
f 490/3/5 485/3/5 484/3/5
f 491/3/5 485/3/5 490/3/5
f 494/3/5 489/3/5 488/3/5
f 495/3/5 489/3/5 494/3/5
f 496/3/5 492/3/5 491/3/5
f 497/3/5 492/3/5 496/3/5
f 500/3/5 494/3/5 493/3/5
f 501/3/5 494/3/5 500/3/5
f 502/3/5 498/3/5 497/3/5
f 503/3/5 498/3/5 502/3/5
f 504/3/5 500/3/5 499/3/5
f 505/3/5 500/3/5 504/3/5
f 506/3/5 504/3/5 503/3/5
f 507/3/5 504/3/5 506/3/5
f 510/1/5 509/1/5 508/1/5
f 511/1/5 509/1/5 510/1/5
f 513/1/5 512/1/5 511/1/5
f 514/1/5 512/1/5 513/1/5
f 519/1/5 516/1/5 515/1/5
f 520/2/5 517/2/5 516/2/5
f 520/1/5 516/1/5 519/1/5
f 521/2/5 517/2/5 520/2/5
f 523/1/5 519/1/5 518/1/5
f 523/2/5 522/2/5 521/2/5
f 523/1/5 521/1/5 520/1/5
f 523/1/5 520/1/5 519/1/5
f 524/2/5 522/2/5 523/2/5
f 525/1/5 523/1/5 518/1/5
f 525/1/5 524/1/5 523/1/5
f 526/1/5 524/1/5 525/1/5
f 527/1/5 524/1/5 526/1/5
f 528/1/5 524/1/5 527/1/5
f 529/1/5 527/1/5 526/1/5
f 530/1/5 527/1/5 529/1/5
f 531/3/6 532/3/6 533/3/6
f 533/3/6 532/3/6 534/3/6
f 535/3/6 536/3/6 538/3/6
f 538/3/6 536/3/6 539/3/6
f 537/3/6 538/3/6 541/3/6
f 541/3/6 538/3/6 542/3/6
f 539/3/6 540/3/6 543/3/6
f 543/3/6 540/3/6 544/3/6
f 542/3/6 543/3/6 545/3/6
f 545/3/6 543/3/6 546/3/6
f 547/3/6 548/3/6 549/3/6
f 549/3/6 548/3/6 550/3/6
f 550/3/6 551/3/6 552/3/6
f 552/3/6 551/3/6 553/3/6
f 554/4/6 555/4/6 557/4/6
f 557/4/6 555/4/6 558/4/6
f 556/4/6 557/4/6 561/4/6
f 557/1/6 558/1/6 562/1/6
f 561/4/6 557/4/6 562/4/6
f 562/1/6 558/1/6 563/1/6
f 558/4/6 559/4/6 564/4/6
f 563/1/6 558/1/6 564/1/6
f 564/4/6 559/4/6 565/4/6
f 560/4/6 561/4/6 568/4/6
f 562/1/6 563/1/6 569/1/6
f 561/1/6 562/1/6 569/1/6
f 568/4/6 561/4/6 569/4/6
f 563/2/6 564/2/6 570/2/6
f 569/1/6 563/1/6 570/1/6
f 564/1/6 565/1/6 571/1/6
f 570/2/6 564/2/6 571/2/6
f 565/4/6 566/4/6 572/4/6
f 571/1/6 565/1/6 572/1/6
f 572/4/6 566/4/6 573/4/6
f 570/1/6 571/1/6 575/1/6
f 568/1/6 569/1/6 575/1/6
f 569/1/6 570/1/6 575/1/6
f 571/2/6 572/2/6 575/2/6
f 572/1/6 573/1/6 576/1/6
f 575/2/6 572/2/6 576/2/6
f 567/4/6 568/4/6 577/4/6
f 568/1/6 575/1/6 578/1/6
f 577/4/6 568/4/6 578/4/6
f 575/1/6 576/1/6 578/1/6
f 578/1/6 576/1/6 579/1/6
f 576/1/6 573/1/6 580/1/6
f 579/1/6 576/1/6 580/1/6
f 573/4/6 574/4/6 581/4/6
f 580/1/6 573/1/6 581/1/6
f 581/4/6 574/4/6 582/4/6
f 578/4/6 579/4/6 583/4/6
f 579/1/6 580/1/6 584/1/6
f 583/4/6 579/4/6 584/4/6
f 584/1/6 580/1/6 585/1/6
f 585/1/6 580/1/6 586/1/6
f 580/4/6 581/4/6 587/4/6
f 586/1/6 580/1/6 587/1/6
f 587/4/6 581/4/6 588/4/6
f 584/4/6 585/4/6 589/4/6
f 585/1/6 586/1/6 590/1/6
f 589/4/6 585/4/6 590/4/6
f 586/4/6 587/4/6 591/4/6
f 590/1/6 586/1/6 591/1/6
f 591/4/6 587/4/6 592/4/6
f 590/4/6 591/4/6 593/4/6
f 593/4/6 591/4/6 594/4/6
