# MagicaVoxel @ ephtracy

# material
mtllib item_aid_kit.mtl
usemtl palette

# normals
vn -1 0 0
vn 1 0 0
vn 0 0 1
vn 0 0 -1
vn 0 -1 0
vn 0 1 0

# texcoords
vt 0.904297 0.5
vt 0.958984 0.5
vt 0.982422 0.5

# verts
v -4.5 0 2.5
v -4.5 0 -2.5
v -4.5 5 2.5
v -4.5 5 -2.5
v -2.5 5 0.5
v -2.5 5 -0.5
v -2.5 7 0.5
v -2.5 7 -0.5
v 1.5 5 0.5
v 1.5 5 -0.5
v 1.5 6 0.5
v 1.5 6 -0.5
v -1.5 5 0.5
v -1.5 5 -0.5
v -1.5 6 0.5
v -1.5 6 -0.5
v 2.5 5 0.5
v 2.5 5 -0.5
v 2.5 7 0.5
v 2.5 7 -0.5
v 4.5 0 2.5
v 4.5 0 -2.5
v 4.5 5 2.5
v 4.5 5 -2.5
v -4.5 0 2.5
v -4.5 5 2.5
v -1.5 2 2.5
v -1.5 3 2.5
v -0.5 1 2.5
v -0.5 2 2.5
v -0.5 3 2.5
v -0.5 4 2.5
v 0.5 1 2.5
v 0.5 2 2.5
v 0.5 3 2.5
v 0.5 4 2.5
v 1.5 2 2.5
v 1.5 3 2.5
v 4.5 0 2.5
v 4.5 5 2.5
v -2.5 5 0.5
v -2.5 7 0.5
v -1.5 5 0.5
v -1.5 6 0.5
v 1.5 5 0.5
v 1.5 6 0.5
v 2.5 5 0.5
v 2.5 7 0.5
v -2.5 5 -0.5
v -2.5 7 -0.5
v -1.5 5 -0.5
v -1.5 6 -0.5
v 1.5 5 -0.5
v 1.5 6 -0.5
v 2.5 5 -0.5
v 2.5 7 -0.5
v -4.5 0 -2.5
v -4.5 5 -2.5
v 4.5 0 -2.5
v 4.5 5 -2.5
v -4.5 0 2.5
v 4.5 0 2.5
v -4.5 0 -2.5
v 4.5 0 -2.5
v -1.5 6 0.5
v 1.5 6 0.5
v -1.5 6 -0.5
v 1.5 6 -0.5
v -4.5 5 2.5
v 4.5 5 2.5
v -2.5 5 0.5
v -1.5 5 0.5
v 1.5 5 0.5
v 2.5 5 0.5
v -2.5 5 -0.5
v -1.5 5 -0.5
v 1.5 5 -0.5
v 2.5 5 -0.5
v -4.5 5 -2.5
v 4.5 5 -2.5
v -2.5 7 0.5
v 2.5 7 0.5
v -2.5 7 -0.5
v 2.5 7 -0.5

# faces
f 3/2/1 2/2/1 1/2/1
f 4/2/1 2/2/1 3/2/1
f 7/3/1 6/3/1 5/3/1
f 8/3/1 6/3/1 7/3/1
f 11/3/1 10/3/1 9/3/1
f 12/3/1 10/3/1 11/3/1
f 13/3/2 14/3/2 15/3/2
f 15/3/2 14/3/2 16/3/2
f 17/3/2 18/3/2 19/3/2
f 19/3/2 18/3/2 20/3/2
f 21/2/2 22/2/2 23/2/2
f 23/2/2 22/2/2 24/2/2
f 27/2/3 26/2/3 25/2/3
f 28/2/3 26/2/3 27/2/3
f 29/2/3 27/2/3 25/2/3
f 30/1/3 28/1/3 27/1/3
f 30/2/3 27/2/3 29/2/3
f 31/2/3 26/2/3 28/2/3
f 31/1/3 28/1/3 30/1/3
f 32/2/3 26/2/3 31/2/3
f 33/1/3 30/1/3 29/1/3
f 33/2/3 29/2/3 25/2/3
f 33/1/3 32/1/3 31/1/3
f 33/1/3 31/1/3 30/1/3
f 34/1/3 32/1/3 33/1/3
f 35/1/3 32/1/3 34/1/3
f 36/2/3 26/2/3 32/2/3
f 36/1/3 32/1/3 35/1/3
f 37/1/3 35/1/3 34/1/3
f 37/2/3 34/2/3 33/2/3
f 38/2/3 36/2/3 35/2/3
f 38/1/3 35/1/3 37/1/3
f 39/2/3 33/2/3 25/2/3
f 39/2/3 37/2/3 33/2/3
f 39/2/3 38/2/3 37/2/3
f 40/2/3 26/2/3 36/2/3
f 40/2/3 38/2/3 39/2/3
f 40/2/3 36/2/3 38/2/3
f 43/3/3 42/3/3 41/3/3
f 44/3/3 42/3/3 43/3/3
f 46/3/3 42/3/3 44/3/3
f 47/3/3 46/3/3 45/3/3
f 48/3/3 42/3/3 46/3/3
f 48/3/3 46/3/3 47/3/3
f 49/3/4 50/3/4 51/3/4
f 51/3/4 50/3/4 52/3/4
f 52/3/4 50/3/4 54/3/4
f 53/3/4 54/3/4 55/3/4
f 54/3/4 50/3/4 56/3/4
f 55/3/4 54/3/4 56/3/4
f 57/2/4 58/2/4 59/2/4
f 59/2/4 58/2/4 60/2/4
f 63/2/5 62/2/5 61/2/5
f 64/2/5 62/2/5 63/2/5
f 67/3/5 66/3/5 65/3/5
f 68/3/5 66/3/5 67/3/5
f 69/2/6 70/2/6 71/2/6
f 71/2/6 70/2/6 72/2/6
f 72/2/6 70/2/6 73/2/6
f 73/2/6 70/2/6 74/2/6
f 69/2/6 71/2/6 75/2/6
f 72/2/6 73/2/6 76/2/6
f 76/2/6 73/2/6 77/2/6
f 74/2/6 70/2/6 78/2/6
f 76/2/6 77/2/6 79/2/6
f 77/2/6 78/2/6 79/2/6
f 69/2/6 75/2/6 79/2/6
f 75/2/6 76/2/6 79/2/6
f 78/2/6 70/2/6 80/2/6
f 79/2/6 78/2/6 80/2/6
f 81/3/6 82/3/6 83/3/6
f 83/3/6 82/3/6 84/3/6
